<svg xmlns="http://www.w3.org/2000/svg" viewBox="0 0 780.37 485"><defs><style>.cls-1,.cls-3,.cls-4,.cls-5{fill:none;}.cls-1,.cls-6,.cls-7{stroke:#000;}.cls-1,.cls-3,.cls-4,.cls-5,.cls-6,.cls-7{stroke-miterlimit:10;}.cls-2{font-size:20.99px;}.cls-12,.cls-13,.cls-2{font-family:HelveticaNeue-Bold, Helvetica Neue;}.cls-12,.cls-14,.cls-2{font-weight:700;}.cls-3{stroke:gray;}.cls-3,.cls-4{stroke-linecap:round;}.cls-3,.cls-4,.cls-5{stroke-width:2px;}.cls-4{stroke:#dfdfdf;}.cls-5{stroke:#006837;}.cls-6{fill:gray;}.cls-6,.cls-7{stroke-width:0.5px;}.cls-7{fill:#dfdfdf;}.cls-8{font-size:20.99px;}.cls-21,.cls-8{font-family:MyriadPro-Regular, Myriad Pro;}.cls-9{letter-spacing:-0.02em;}.cls-10{letter-spacing:-0.01em;}.cls-11{letter-spacing:0em;}.cls-12{font-size:16.19px;}.cls-13{font-size:30px;fill:#1a1a1a;}.cls-15{letter-spacing:-0.06em;}.cls-16{letter-spacing:-0.11em;}.cls-17{letter-spacing:-0.09em;}.cls-18,.cls-21{font-size:25px;fill:#333;}.cls-18{font-family:HelveticaNeue, Helvetica Neue;}.cls-19{letter-spacing:-0.02em;}.cls-20{letter-spacing:-0.02em;}.cls-22{letter-spacing:-0.02em;}.cls-23{letter-spacing:-0.01em;}.cls-24{letter-spacing:0.02em;}.cls-25{letter-spacing:-0.01em;}.cls-26{letter-spacing:0em;}.cls-27{letter-spacing:-0.01em;}.cls-28{letter-spacing:0.01em;}.cls-29{letter-spacing:0em;}.cls-30{letter-spacing:-0.04em;}.cls-31{letter-spacing:-0.07em;}.cls-32{letter-spacing:-0.04em;}.cls-33{letter-spacing:-0.04em;}.cls-34{letter-spacing:0em;}.cls-35{letter-spacing:0em;}.cls-36{letter-spacing:-0.01em;}</style></defs><title>weighting_se</title><g id="Layer_2" data-name="Layer 2"><g id="Layer_1-2" data-name="Layer 1"><line class="cls-1" x1="123.58" y1="398.37" x2="571.45" y2="398.37"/><line class="cls-1" x1="123.58" y1="398.37" x2="123.58" y2="391.35"/><line class="cls-1" x1="198.22" y1="398.37" x2="198.22" y2="391.35"/><line class="cls-1" x1="272.87" y1="398.37" x2="272.87" y2="391.35"/><line class="cls-1" x1="347.51" y1="398.37" x2="347.51" y2="391.35"/><line class="cls-1" x1="422.16" y1="398.37" x2="422.16" y2="391.35"/><line class="cls-1" x1="496.81" y1="398.37" x2="496.81" y2="391.35"/><line class="cls-1" x1="571.45" y1="398.37" x2="571.45" y2="391.35"/><text class="cls-2" transform="translate(69.89 406.24)">4000</text><text class="cls-2" transform="translate(69.89 336.09)">5000</text><text class="cls-2" transform="translate(69.89 265.93)">6000</text><text class="cls-2" transform="translate(69.89 195.78)">7000</text><text class="cls-2" transform="translate(69.89 125.63)">8000</text><line class="cls-1" x1="123.58" y1="398.37" x2="123.58" y2="117.75"/><line class="cls-1" x1="123.58" y1="398.37" x2="134.77" y2="398.37"/><line class="cls-1" x1="123.58" y1="328.21" x2="134.77" y2="328.21"/><line class="cls-1" x1="123.58" y1="258.06" x2="134.77" y2="258.06"/><line class="cls-1" x1="123.58" y1="187.91" x2="134.77" y2="187.91"/><line class="cls-1" x1="123.58" y1="117.75" x2="134.77" y2="117.75"/><line class="cls-3" x1="602.64" y1="131.78" x2="658.63" y2="131.78"/><line class="cls-3" x1="235.54" y1="302.82" x2="160.9" y2="211.83"/><line class="cls-3" x1="310.19" y1="306.68" x2="235.54" y2="302.82"/><line class="cls-3" x1="384.84" y1="324.07" x2="310.19" y2="306.68"/><line class="cls-3" x1="459.48" y1="318.95" x2="384.84" y2="324.07"/><line class="cls-3" x1="534.13" y1="321.06" x2="459.48" y2="318.95"/><line class="cls-4" x1="602.64" y1="173.88" x2="658.63" y2="173.88"/><line class="cls-4" x1="235.54" y1="331.16" x2="160.9" y2="260.8"/><line class="cls-4" x1="310.19" y1="333.62" x2="235.54" y2="331.16"/><line class="cls-4" x1="384.84" y1="338.67" x2="310.19" y2="333.62"/><line class="cls-4" x1="459.48" y1="348.7" x2="384.84" y2="338.67"/><line class="cls-4" x1="534.13" y1="351.5" x2="459.48" y2="348.7"/><line class="cls-5" x1="602.64" y1="215.97" x2="658.63" y2="215.97"/><line class="cls-5" x1="235.54" y1="316.99" x2="160.9" y2="236.31"/><line class="cls-5" x1="310.19" y1="320.15" x2="235.54" y2="316.99"/><line class="cls-5" x1="384.84" y1="331.37" x2="310.19" y2="320.15"/><line class="cls-5" x1="459.48" y1="333.83" x2="384.84" y2="331.37"/><line class="cls-5" x1="534.13" y1="336.28" x2="459.48" y2="333.83"/><rect class="cls-6" x="628.24" y="129.38" width="4.8" height="4.8"/><rect class="cls-6" x="158.5" y="209.43" width="4.8" height="4.8"/><rect class="cls-6" x="233.14" y="300.42" width="4.8" height="4.8"/><rect class="cls-6" x="307.79" y="304.28" width="4.8" height="4.8"/><rect class="cls-6" x="382.44" y="321.67" width="4.8" height="4.8"/><rect class="cls-6" x="457.08" y="316.55" width="4.8" height="4.8"/><rect class="cls-6" x="531.73" y="318.66" width="4.8" height="4.8"/><rect class="cls-7" x="628.24" y="171.48" width="4.8" height="4.8"/><rect class="cls-7" x="158.5" y="258.4" width="4.8" height="4.8"/><rect class="cls-7" x="233.14" y="328.76" width="4.8" height="4.8"/><rect class="cls-7" x="307.79" y="331.22" width="4.8" height="4.8"/><rect class="cls-7" x="382.44" y="336.27" width="4.8" height="4.8"/><rect class="cls-7" x="457.08" y="346.3" width="4.8" height="4.8"/><rect class="cls-7" x="531.73" y="349.1" width="4.8" height="4.8"/><rect class="cls-5" x="628.24" y="213.57" width="4.8" height="4.8"/><rect class="cls-5" x="158.5" y="233.91" width="4.8" height="4.8"/><rect class="cls-5" x="233.14" y="314.59" width="4.8" height="4.8"/><rect class="cls-5" x="307.79" y="317.75" width="4.8" height="4.8"/><rect class="cls-5" x="382.44" y="328.97" width="4.8" height="4.8"/><rect class="cls-5" x="457.08" y="331.43" width="4.8" height="4.8"/><rect class="cls-5" x="531.73" y="333.88" width="4.8" height="4.8"/><text class="cls-8" transform="translate(665.63 139.66)">+1 SE</text><text class="cls-8" transform="translate(665.63 181.75)">-1 SE</text><text class="cls-8" transform="translate(665.63 223.84)"><tspan class="cls-9">A</tspan><tspan class="cls-10" x="12.41" y="0">v</tspan><tspan x="22.3" y="0">e</tspan><tspan class="cls-11" x="32.81" y="0">r</tspan><tspan x="39.57" y="0">age</tspan></text><text class="cls-12" transform="translate(512.53 418.5)">100%</text><text class="cls-12" transform="translate(442.38 418.5)">80%</text><text class="cls-12" transform="translate(367.74 418.5)">60%</text><text class="cls-12" transform="translate(293.09 418.5)">40%</text><text class="cls-12" transform="translate(218.45 418.5)">20%</text><text class="cls-12" transform="translate(156.4 418.5)">0</text><text class="cls-13" transform="translate(65.96 25.71)"><tspan class="cls-14"><tspan class="cls-15">W</tspan><tspan x="26.61" y="0">eighting of </tspan><tspan class="cls-16" x="187.11" y="0">T</tspan><tspan x="202.11" y="0">op </tspan><tspan class="cls-17" x="247.11" y="0">T</tspan><tspan x="262.68" y="0">racks vs. Performance:</tspan></tspan><tspan class="cls-18"><tspan x="0" y="30">Using a higher pe</tspan><tspan class="cls-19" x="196.32" y="30">r</tspan><tspan x="204.2" y="30">centage of top tracks imp</tspan><tspan class="cls-20" x="490.85" y="30">r</tspan><tspan x="498.72" y="30">oves performance </tspan><tspan x="0" y="60">but dec</tspan><tspan class="cls-19" x="85.22" y="60">r</tspan><tspan x="93.1" y="60">eases the acoustic similarity of the </tspan><tspan class="cls-20" x="484.82" y="60">r</tspan><tspan x="492.7" y="60">esulting playlist.</tspan></tspan></text><text class="cls-21" transform="translate(110.96 459.04)"><tspan class="cls-22">P</tspan><tspan class="cls-23" x="12.9" y="0">r</tspan><tspan x="20.83" y="0">opo</tspan><tspan class="cls-24" x="62.5" y="0">r</tspan><tspan x="71.27" y="0">tion of </tspan><tspan class="cls-25" x="144.62" y="0">C</tspan><tspan x="158.95" y="0">andid</tspan><tspan class="cls-26" x="218.92" y="0">a</tspan><tspan class="cls-27" x="230.87" y="0">t</tspan><tspan x="238.99" y="0">e </tspan><tspan class="cls-28" x="256.82" y="0">S</tspan><tspan x="269.29" y="0">ongs th</tspan><tspan class="cls-29" x="348.22" y="0">a</tspan><tspan x="360.17" y="0">t a</tspan><tspan class="cls-23" x="385.79" y="0">r</tspan><tspan x="393.72" y="0">e</tspan><tspan class="cls-30" x="406.24" y="0"> </tspan><tspan class="cls-31" x="410.52" y="0">T</tspan><tspan x="421.17" y="0">op</tspan><tspan class="cls-32" x="449.12" y="0"> </tspan><tspan class="cls-33" x="453.39" y="0">T</tspan><tspan class="cls-34" x="464.69" y="0">r</tspan><tspan x="472.74" y="0">acks</tspan></text><text class="cls-21" transform="translate(20.93 408.35) rotate(-90)">Simul<tspan class="cls-26" x="58.7" y="0">a</tspan><tspan class="cls-27" x="70.65" y="0">t</tspan><tspan x="78.77" y="0">ed </tspan><tspan class="cls-35" x="110.7" y="0">A</tspan><tspan x="125.92" y="0">nnealing Ene</tspan><tspan class="cls-36" x="261.84" y="0">r</tspan><tspan x="269.82" y="0">gy </tspan><tspan x="0" y="30">(loss)</tspan></text></g></g></svg>